<mxfile host="Electron" modified="2023-07-12T06:42:46.558Z" agent="Mozilla/5.0 (Windows NT 10.0; Win64; x64) AppleWebKit/537.36 (KHTML, like Gecko) draw.io/21.6.1 Chrome/112.0.5615.204 Electron/24.6.1 Safari/537.36" etag="PgMi4ZFVMcicaoxuBe2B" version="21.6.1" type="device">
  <diagram name="第 1 页" id="S3T1uCHi1aYwOrzbFI_4">
    <mxGraphModel dx="1100" dy="2017" grid="1" gridSize="6" guides="0" tooltips="1" connect="1" arrows="1" fold="1" page="1" pageScale="1" pageWidth="1169" pageHeight="827" math="0" shadow="0">
      <root>
        <mxCell id="0" />
        <mxCell id="1" parent="0" />
        <mxCell id="XTN0cot1_cpCae_w6XRC-3" value="&lt;font style=&quot;font-size: 25px;&quot;&gt;Mux&lt;/font&gt;" style="rounded=1;whiteSpace=wrap;html=1;fontStyle=1;fillColor=#e1d5e7;strokeColor=#9673a6;" parent="1" vertex="1">
          <mxGeometry x="192" y="-648" width="120" height="480" as="geometry" />
        </mxCell>
        <mxCell id="XTN0cot1_cpCae_w6XRC-7" value="&lt;font face=&quot;Times New Roman&quot;&gt;Uncache&lt;/font&gt;" style="rounded=1;whiteSpace=wrap;html=1;fontStyle=1;fontSize=25;fillColor=#e1d5e7;strokeColor=#9673a6;" parent="1" vertex="1">
          <mxGeometry x="432" y="-384" width="120" height="216" as="geometry" />
        </mxCell>
        <mxCell id="XTN0cot1_cpCae_w6XRC-8" value="&lt;font face=&quot;Times New Roman&quot;&gt;Pmem Mux&lt;/font&gt;" style="rounded=1;whiteSpace=wrap;html=1;fontStyle=1;fontSize=25;fillColor=#e1d5e7;strokeColor=#9673a6;" parent="1" vertex="1">
          <mxGeometry x="672" y="-648" width="120" height="480" as="geometry" />
        </mxCell>
        <mxCell id="XTN0cot1_cpCae_w6XRC-9" value="&lt;font face=&quot;Times New Roman&quot;&gt;Axi&lt;/font&gt;" style="rounded=1;whiteSpace=wrap;html=1;fontStyle=1;fontSize=25;fillColor=#e1d5e7;strokeColor=#9673a6;" parent="1" vertex="1">
          <mxGeometry x="912" y="-648" width="120" height="480" as="geometry" />
        </mxCell>
        <mxCell id="XTN0cot1_cpCae_w6XRC-10" value="" style="group" parent="1" vertex="1" connectable="0">
          <mxGeometry x="432" y="-648" width="120" height="216" as="geometry" />
        </mxCell>
        <mxCell id="XTN0cot1_cpCae_w6XRC-4" value="&lt;font face=&quot;Times New Roman&quot;&gt;Core&lt;/font&gt;" style="rounded=1;whiteSpace=wrap;html=1;fontStyle=1;fontSize=25;fillColor=#e1d5e7;strokeColor=#9673a6;" parent="XTN0cot1_cpCae_w6XRC-10" vertex="1">
          <mxGeometry width="120.00000000000003" height="216.00000000000003" as="geometry" />
        </mxCell>
        <mxCell id="XTN0cot1_cpCae_w6XRC-15" value="TAG RAM" style="rounded=1;whiteSpace=wrap;html=1;fillColor=#f8cecc;strokeColor=#b85450;" parent="XTN0cot1_cpCae_w6XRC-10" vertex="1">
          <mxGeometry x="24.881163533167786" y="16.307014784523435" width="70.23767293366443" height="48.9210443535703" as="geometry" />
        </mxCell>
        <mxCell id="XTN0cot1_cpCae_w6XRC-16" value="DATA RAM" style="rounded=1;whiteSpace=wrap;html=1;fillColor=#f8cecc;strokeColor=#b85450;" parent="XTN0cot1_cpCae_w6XRC-10" vertex="1">
          <mxGeometry x="24.881163533167786" y="146.76313306071094" width="70.23767293366443" height="48.9210443535703" as="geometry" />
        </mxCell>
        <mxCell id="XTN0cot1_cpCae_w6XRC-43" value="" style="curved=1;endArrow=classic;html=1;rounded=0;fontStyle=1;strokeWidth=4;" parent="XTN0cot1_cpCae_w6XRC-10" edge="1">
          <mxGeometry width="50" height="50" relative="1" as="geometry">
            <mxPoint x="120" y="156" as="sourcePoint" />
            <mxPoint x="240" y="156" as="targetPoint" />
            <Array as="points" />
          </mxGeometry>
        </mxCell>
        <mxCell id="XTN0cot1_cpCae_w6XRC-44" value="" style="curved=1;endArrow=classic;html=1;rounded=0;fontStyle=1;strokeWidth=4;" parent="XTN0cot1_cpCae_w6XRC-10" edge="1">
          <mxGeometry width="50" height="50" relative="1" as="geometry">
            <mxPoint x="120" y="108" as="sourcePoint" />
            <mxPoint x="240" y="108" as="targetPoint" />
            <Array as="points" />
          </mxGeometry>
        </mxCell>
        <mxCell id="XTN0cot1_cpCae_w6XRC-45" value="" style="curved=1;endArrow=classic;html=1;rounded=0;fontStyle=1;strokeWidth=4;" parent="XTN0cot1_cpCae_w6XRC-10" edge="1">
          <mxGeometry width="50" height="50" relative="1" as="geometry">
            <mxPoint x="120" y="360" as="sourcePoint" />
            <mxPoint x="240" y="360" as="targetPoint" />
            <Array as="points" />
          </mxGeometry>
        </mxCell>
        <mxCell id="XTN0cot1_cpCae_w6XRC-46" value="" style="curved=1;endArrow=classic;html=1;rounded=0;fontStyle=1;strokeWidth=4;" parent="XTN0cot1_cpCae_w6XRC-10" edge="1">
          <mxGeometry width="50" height="50" relative="1" as="geometry">
            <mxPoint x="120" y="312" as="sourcePoint" />
            <mxPoint x="240" y="312" as="targetPoint" />
            <Array as="points" />
          </mxGeometry>
        </mxCell>
        <mxCell id="XTN0cot1_cpCae_w6XRC-47" value="" style="curved=1;endArrow=classic;html=1;rounded=0;fontStyle=1;strokeWidth=4;" parent="XTN0cot1_cpCae_w6XRC-10" edge="1">
          <mxGeometry width="50" height="50" relative="1" as="geometry">
            <mxPoint x="240" y="60" as="sourcePoint" />
            <mxPoint x="120" y="60" as="targetPoint" />
            <Array as="points" />
          </mxGeometry>
        </mxCell>
        <mxCell id="XTN0cot1_cpCae_w6XRC-48" value="" style="curved=1;endArrow=classic;html=1;rounded=0;fontStyle=1;strokeWidth=4;" parent="XTN0cot1_cpCae_w6XRC-10" edge="1">
          <mxGeometry width="50" height="50" relative="1" as="geometry">
            <mxPoint x="240" y="408" as="sourcePoint" />
            <mxPoint x="119.99767717633927" y="408" as="targetPoint" />
            <Array as="points" />
          </mxGeometry>
        </mxCell>
        <mxCell id="XTN0cot1_cpCae_w6XRC-17" value="" style="curved=1;endArrow=classic;html=1;rounded=0;fontStyle=1;strokeWidth=4;" parent="1" edge="1">
          <mxGeometry width="50" height="50" relative="1" as="geometry">
            <mxPoint x="48" y="-384" as="sourcePoint" />
            <mxPoint x="192" y="-384" as="targetPoint" />
            <Array as="points" />
          </mxGeometry>
        </mxCell>
        <mxCell id="XTN0cot1_cpCae_w6XRC-19" value="&lt;font style=&quot;font-size: 13px;&quot;&gt;mem_addr_w[31:0]&lt;/font&gt;" style="text;whiteSpace=wrap;html=1;fontSize=13;fontStyle=1" parent="1" vertex="1">
          <mxGeometry x="67" y="-367" width="126" height="28" as="geometry" />
        </mxCell>
        <mxCell id="XTN0cot1_cpCae_w6XRC-20" value="&lt;font style=&quot;font-size: 13px;&quot;&gt;mem_data_wr_w[31:0]&lt;/font&gt;" style="text;whiteSpace=wrap;html=1;fontStyle=1;fontSize=13;" parent="1" vertex="1">
          <mxGeometry x="47" y="-415" width="156" height="31.13" as="geometry" />
        </mxCell>
        <mxCell id="XTN0cot1_cpCae_w6XRC-21" value="" style="curved=1;endArrow=classic;html=1;rounded=0;fontStyle=1;strokeWidth=4;" parent="1" edge="1">
          <mxGeometry width="50" height="50" relative="1" as="geometry">
            <mxPoint x="48" y="-336" as="sourcePoint" />
            <mxPoint x="192" y="-336" as="targetPoint" />
            <Array as="points" />
          </mxGeometry>
        </mxCell>
        <mxCell id="XTN0cot1_cpCae_w6XRC-25" value="" style="curved=1;endArrow=classic;html=1;rounded=0;fontStyle=1;strokeWidth=4;" parent="1" edge="1">
          <mxGeometry width="50" height="50" relative="1" as="geometry">
            <mxPoint x="312" y="-492" as="sourcePoint" />
            <mxPoint x="432" y="-492" as="targetPoint" />
            <Array as="points" />
          </mxGeometry>
        </mxCell>
        <mxCell id="XTN0cot1_cpCae_w6XRC-26" value="" style="curved=1;endArrow=classic;html=1;rounded=0;fontStyle=1;strokeWidth=4;" parent="1" edge="1">
          <mxGeometry width="50" height="50" relative="1" as="geometry">
            <mxPoint x="312" y="-540" as="sourcePoint" />
            <mxPoint x="432" y="-540" as="targetPoint" />
            <Array as="points" />
          </mxGeometry>
        </mxCell>
        <mxCell id="XTN0cot1_cpCae_w6XRC-27" value="" style="curved=1;endArrow=classic;html=1;rounded=0;fontStyle=1;strokeWidth=4;" parent="1" edge="1">
          <mxGeometry width="50" height="50" relative="1" as="geometry">
            <mxPoint x="312" y="-288" as="sourcePoint" />
            <mxPoint x="432" y="-288" as="targetPoint" />
            <Array as="points" />
          </mxGeometry>
        </mxCell>
        <mxCell id="XTN0cot1_cpCae_w6XRC-28" value="" style="curved=1;endArrow=classic;html=1;rounded=0;fontStyle=1;strokeWidth=4;" parent="1" edge="1">
          <mxGeometry width="50" height="50" relative="1" as="geometry">
            <mxPoint x="312" y="-336" as="sourcePoint" />
            <mxPoint x="432" y="-336" as="targetPoint" />
            <Array as="points" />
          </mxGeometry>
        </mxCell>
        <mxCell id="XTN0cot1_cpCae_w6XRC-29" value="mem_cached_&lt;br style=&quot;font-size: 13px;&quot;&gt;data_wr_w[31:0]" style="text;whiteSpace=wrap;html=1;fontStyle=0;fontSize=13;align=right;" parent="1" vertex="1">
          <mxGeometry x="312" y="-537" width="102" height="39.86" as="geometry" />
        </mxCell>
        <mxCell id="XTN0cot1_cpCae_w6XRC-30" value="mem_cached&lt;br style=&quot;font-size: 13px;&quot;&gt;_addr_w[31:0]" style="text;whiteSpace=wrap;html=1;fontSize=13;align=right;fontStyle=0" parent="1" vertex="1">
          <mxGeometry x="329" y="-585" width="86" height="48" as="geometry" />
        </mxCell>
        <mxCell id="XTN0cot1_cpCae_w6XRC-31" value="mem_uncached_&lt;br&gt;data_wr_w[31:0]" style="text;whiteSpace=wrap;html=1;fontSize=13;align=right;fontStyle=0" parent="1" vertex="1">
          <mxGeometry x="275" y="-334" width="141" height="33.14" as="geometry" />
        </mxCell>
        <mxCell id="XTN0cot1_cpCae_w6XRC-32" value="mem_uncached&lt;br style=&quot;font-size: 13px;&quot;&gt;_addr_w[31:0]" style="text;whiteSpace=wrap;html=1;fontStyle=0;fontSize=13;align=right;" parent="1" vertex="1">
          <mxGeometry x="336" y="-380.00000000000045" width="78" height="26.4" as="geometry" />
        </mxCell>
        <mxCell id="XTN0cot1_cpCae_w6XRC-33" value="" style="curved=1;endArrow=classic;html=1;rounded=0;fontStyle=1;strokeWidth=4;" parent="1" edge="1">
          <mxGeometry width="50" height="50" relative="1" as="geometry">
            <mxPoint x="432" y="-588" as="sourcePoint" />
            <mxPoint x="312" y="-588" as="targetPoint" />
            <Array as="points" />
          </mxGeometry>
        </mxCell>
        <mxCell id="XTN0cot1_cpCae_w6XRC-36" value="" style="curved=1;endArrow=classic;html=1;rounded=0;fontStyle=1;strokeWidth=4;" parent="1" edge="1">
          <mxGeometry width="50" height="50" relative="1" as="geometry">
            <mxPoint x="432" y="-240" as="sourcePoint" />
            <mxPoint x="311.99767717633927" y="-240" as="targetPoint" />
            <Array as="points" />
          </mxGeometry>
        </mxCell>
        <mxCell id="XTN0cot1_cpCae_w6XRC-40" value="mem_cached_&lt;br style=&quot;font-size: 13px;&quot;&gt;data_rd_w[31:0]" style="text;whiteSpace=wrap;html=1;fontSize=13;fontStyle=0" parent="1" vertex="1">
          <mxGeometry x="330" y="-632" width="140" height="26" as="geometry" />
        </mxCell>
        <mxCell id="XTN0cot1_cpCae_w6XRC-42" value="mem_uncached_&lt;br&gt;data_rd_w[31:0]" style="text;whiteSpace=wrap;html=1;fontSize=13;align=right;fontStyle=0" parent="1" vertex="1">
          <mxGeometry x="225" y="-283.99999999999955" width="207.39" height="29.54" as="geometry" />
        </mxCell>
        <mxCell id="XTN0cot1_cpCae_w6XRC-49" value="pmem_cache_write&lt;br style=&quot;font-size: 13px;&quot;&gt;_data_w[31:0]" style="text;whiteSpace=wrap;html=1;fontSize=13;align=right;" parent="1" vertex="1">
          <mxGeometry x="529" y="-537.8600000000001" width="140" height="18.86" as="geometry" />
        </mxCell>
        <mxCell id="XTN0cot1_cpCae_w6XRC-50" value="&lt;font style=&quot;font-size: 13px;&quot;&gt;pmem_uncached_&lt;br&gt;write_data_w[31:0]&lt;/font&gt;" style="text;whiteSpace=wrap;html=1;strokeWidth=15;fontSize=13;align=right;" parent="1" vertex="1">
          <mxGeometry x="545" y="-334" width="126" height="37.65" as="geometry" />
        </mxCell>
        <mxCell id="XTN0cot1_cpCae_w6XRC-51" value="pmem_cache&lt;br style=&quot;font-size: 13px;&quot;&gt;_addr_w[31:0]" style="text;whiteSpace=wrap;html=1;fontSize=13;align=right;" parent="1" vertex="1">
          <mxGeometry x="522" y="-584" width="130" height="40" as="geometry" />
        </mxCell>
        <mxCell id="XTN0cot1_cpCae_w6XRC-52" value="&lt;font style=&quot;font-size: 13px;&quot;&gt;pmem_uncached&lt;br style=&quot;font-size: 13px;&quot;&gt;_addr_w[31:0]&lt;br style=&quot;font-size: 13px;&quot;&gt;&lt;/font&gt;" style="text;whiteSpace=wrap;html=1;fontSize=13;align=right;" parent="1" vertex="1">
          <mxGeometry x="552" y="-382.00000000000006" width="110" height="40" as="geometry" />
        </mxCell>
        <mxCell id="XTN0cot1_cpCae_w6XRC-53" value="pmem_cache_read&lt;br style=&quot;font-size: 13px;&quot;&gt;_data_w[31:0]" style="text;whiteSpace=wrap;html=1;fontSize=13;align=right;" parent="1" vertex="1">
          <mxGeometry x="528" y="-631" width="140" height="64.24" as="geometry" />
        </mxCell>
        <mxCell id="XTN0cot1_cpCae_w6XRC-54" value="pmem_uncached_&lt;br&gt;read_data_w[31:0]" style="text;whiteSpace=wrap;html=1;fontSize=13;align=right;" parent="1" vertex="1">
          <mxGeometry x="534" y="-286.21000000000004" width="135" height="30.4" as="geometry" />
        </mxCell>
        <mxCell id="XTN0cot1_cpCae_w6XRC-57" value="" style="curved=1;endArrow=classic;html=1;rounded=0;fontStyle=1;strokeWidth=4;" parent="1" edge="1">
          <mxGeometry width="50" height="50" relative="1" as="geometry">
            <mxPoint x="792" y="-360" as="sourcePoint" />
            <mxPoint x="912" y="-360" as="targetPoint" />
            <Array as="points" />
          </mxGeometry>
        </mxCell>
        <mxCell id="XTN0cot1_cpCae_w6XRC-58" value="" style="curved=1;endArrow=classic;html=1;rounded=0;fontStyle=1;strokeWidth=4;" parent="1" edge="1">
          <mxGeometry width="50" height="50" relative="1" as="geometry">
            <mxPoint x="792" y="-408" as="sourcePoint" />
            <mxPoint x="912" y="-408" as="targetPoint" />
            <Array as="points" />
          </mxGeometry>
        </mxCell>
        <mxCell id="XTN0cot1_cpCae_w6XRC-59" value="" style="curved=1;endArrow=classic;html=1;rounded=0;fontStyle=1;strokeWidth=4;" parent="1" edge="1">
          <mxGeometry width="50" height="50" relative="1" as="geometry">
            <mxPoint x="912" y="-456" as="sourcePoint" />
            <mxPoint x="792" y="-456" as="targetPoint" />
            <Array as="points" />
          </mxGeometry>
        </mxCell>
        <mxCell id="XTN0cot1_cpCae_w6XRC-64" value="pmem_read&lt;br style=&quot;border-color: var(--border-color);&quot;&gt;_data_w[31:0]" style="text;whiteSpace=wrap;html=1;fontSize=13;align=right;" parent="1" vertex="1">
          <mxGeometry x="768" y="-499" width="130" height="40" as="geometry" />
        </mxCell>
        <mxCell id="XTN0cot1_cpCae_w6XRC-65" value="&lt;font style=&quot;font-size: 13px;&quot;&gt;pmem_addr&lt;br&gt;_w[31:0]&lt;/font&gt;" style="text;whiteSpace=wrap;html=1;fontSize=13;align=right;" parent="1" vertex="1">
          <mxGeometry x="822" y="-450" width="73.38" height="35.51" as="geometry" />
        </mxCell>
        <mxCell id="XTN0cot1_cpCae_w6XRC-66" value="pmem_write&lt;br style=&quot;font-size: 13px;&quot;&gt;_data_w[31:0]" style="text;whiteSpace=wrap;html=1;strokeWidth=2;fontSize=13;align=right;" parent="1" vertex="1">
          <mxGeometry x="804" y="-402" width="90" height="24.13" as="geometry" />
        </mxCell>
        <mxCell id="XTN0cot1_cpCae_w6XRC-69" value="&lt;font style=&quot;font-size: 13px;&quot;&gt;axi_rdata_i [31:0]&lt;/font&gt;" style="text;whiteSpace=wrap;html=1;fontStyle=1;fontSize=18;align=left;" parent="1" vertex="1">
          <mxGeometry x="1036" y="-492" width="162.64" height="22" as="geometry" />
        </mxCell>
        <mxCell id="XTN0cot1_cpCae_w6XRC-70" value="" style="curved=1;endArrow=classic;html=1;rounded=0;fontStyle=1;strokeWidth=4;" parent="1" edge="1">
          <mxGeometry width="50" height="50" relative="1" as="geometry">
            <mxPoint x="1152" y="-456" as="sourcePoint" />
            <mxPoint x="1032" y="-456" as="targetPoint" />
            <Array as="points" />
          </mxGeometry>
        </mxCell>
        <mxCell id="XTN0cot1_cpCae_w6XRC-71" value="" style="curved=1;endArrow=classic;html=1;rounded=0;fontStyle=1;strokeWidth=4;" parent="1" edge="1">
          <mxGeometry width="50" height="50" relative="1" as="geometry">
            <mxPoint x="192" y="-432" as="sourcePoint" />
            <mxPoint x="48" y="-432" as="targetPoint" />
            <Array as="points" />
          </mxGeometry>
        </mxCell>
        <mxCell id="XTN0cot1_cpCae_w6XRC-72" value="mem_data_rd_o[31:0]" style="text;whiteSpace=wrap;html=1;fontSize=13;fontStyle=1" parent="1" vertex="1">
          <mxGeometry x="51" y="-463" width="136" height="40" as="geometry" />
        </mxCell>
        <mxCell id="XTN0cot1_cpCae_w6XRC-73" value="" style="curved=1;endArrow=classic;html=1;rounded=0;fontStyle=1;strokeWidth=4;" parent="1" edge="1">
          <mxGeometry width="50" height="50" relative="1" as="geometry">
            <mxPoint x="1032" y="-408" as="sourcePoint" />
            <mxPoint x="1152" y="-408" as="targetPoint" />
            <Array as="points" />
          </mxGeometry>
        </mxCell>
        <mxCell id="XTN0cot1_cpCae_w6XRC-74" value="" style="curved=1;endArrow=classic;html=1;rounded=0;fontStyle=1;strokeWidth=4;" parent="1" edge="1">
          <mxGeometry width="50" height="50" relative="1" as="geometry">
            <mxPoint x="1032" y="-360" as="sourcePoint" />
            <mxPoint x="1152" y="-360" as="targetPoint" />
            <Array as="points" />
          </mxGeometry>
        </mxCell>
        <mxCell id="XTN0cot1_cpCae_w6XRC-75" value="" style="curved=1;endArrow=classic;html=1;rounded=0;fontStyle=1;strokeWidth=4;" parent="1" edge="1">
          <mxGeometry width="50" height="50" relative="1" as="geometry">
            <mxPoint x="1032" y="-312" as="sourcePoint" />
            <mxPoint x="1152" y="-312" as="targetPoint" />
            <Array as="points" />
          </mxGeometry>
        </mxCell>
        <mxCell id="XTN0cot1_cpCae_w6XRC-76" value="axi_wdata_o [31:0]" style="text;whiteSpace=wrap;html=1;fontSize=13;fontStyle=1;align=left;" parent="1" vertex="1">
          <mxGeometry x="1035" y="-392" width="120" height="20" as="geometry" />
        </mxCell>
        <mxCell id="XTN0cot1_cpCae_w6XRC-77" value="axi_awaddr_o [31:0]" style="text;whiteSpace=wrap;html=1;fontSize=13;fontStyle=1;align=left;" parent="1" vertex="1">
          <mxGeometry x="1035" y="-344" width="134" height="25.04" as="geometry" />
        </mxCell>
        <mxCell id="XTN0cot1_cpCae_w6XRC-78" value="axi_araddr_o [31:0]" style="text;whiteSpace=wrap;html=1;fontSize=13;fontStyle=1;align=left;" parent="1" vertex="1">
          <mxGeometry x="1035" y="-440.99999999999994" width="132" height="26.3" as="geometry" />
        </mxCell>
      </root>
    </mxGraphModel>
  </diagram>
</mxfile>
